<?xml version="1.0" encoding="UTF-8"?>
<svg id="Layer_2" data-name="Layer 2" xmlns="http://www.w3.org/2000/svg" viewBox="0 0 38.77 31.51">
  <defs>
    <style>
      .cls-1 {
        stroke: #000;
        stroke-linecap: round;
        stroke-linejoin: round;
        stroke-width: .25px;
      }
    </style>
  </defs>
  <g id="LINE">
    <g id="LWPOLYLINE">
      <path class="cls-1" d="m36.48.12h-2.56c-1.08.14-1.93,1.01-2.03,2.11-.09-1.1-.95-1.97-2.03-2.11h-2.56c-1.23.03-2.19,1.06-2.16,2.29.04,1.18.99,2.14,2.16,2.16,1.22.01,2.2.96,2.27,2.16.08,1.27-.89,2.35-2.15,2.42H6.92c-3.56-.07-6.53,2.65-6.79,6.2v9.83c.26,3.49,3.15,6.2,6.66,6.2h12.12c8.08-.42,14.6-6.76,15.23-14.84V7.19c-.03-1.42,1.1-2.58,2.5-2.61,1.23-.12,2.12-1.22,2-2.45-.11-1.11-1.03-1.97-2.15-2ZM6.93,26.12c-.71,0-1.28-.57-1.28-1.28s.57-1.28,1.28-1.28,1.28.57,1.28,1.28-.57,1.28-1.28,1.28Z"/>
    </g>
  </g>
</svg>