<?xml version="1.0" encoding="UTF-8"?>
<svg id="Layer_2" data-name="Layer 2" xmlns="http://www.w3.org/2000/svg" viewBox="0 0 21.02 34.26">
  <defs>
    <style>
      .cls-1 {
        stroke: #000;
        stroke-linecap: round;
        stroke-linejoin: round;
        stroke-width: .25px;
      }
    </style>
  </defs>
  <g id="LINE">
    <g id="LWPOLYLINE">
      <path class="cls-1" d="m16.91,34.13c1.59-1.81,2.75-3.95,3.4-6.27.62-4.08-.18-8.25-2.27-11.81l.52-2.46-2.39.77-3.95-.16-2.12-.75-.81.16.2.82,3.16,3.71c.51.69.74,1.55.65,2.4-.21,1.86-1.89,3.2-3.75,2.99-1.83-.08-3.54-.96-4.66-2.41-2.1-2.72-1.6-6.63,1.12-8.73,1.12-.71,2.49-.92,3.78-.58l3.86.81c.88.15,1.78.05,2.6-.29,1.62-.76,3.01-1.93,4.03-3.41.33-.39.54-.86.61-1.36.02-.51-.1-1.01-.35-1.45C17.9.78,11.46-1.39,6.14,1.25,3.88,2.37,2.08,4.25,1.07,6.57-.35,11.49-.16,16.73,1.61,21.54c.2.66.41,1.32.63,1.97.62,1.3.67,2.81.12,4.15-.69,2.1-.7,4.36-.04,6.47h4.22c.35-1.11,1.22-1.97,2.33-2.33,1.89-.61,3.92.44,4.52,2.33,0,0,3.52,0,3.52,0Z"/>
    </g>
  </g>
</svg>