<?xml version="1.0" encoding="UTF-8"?>
<svg id="Layer_2" data-name="Layer 2" xmlns="http://www.w3.org/2000/svg" viewBox="0 0 60.09 60.09">
  <defs>
    <style>
      .cls-1 {
        stroke: #000;
        stroke-linecap: round;
        stroke-linejoin: round;
        stroke-width: .25px;
      }
    </style>
  </defs>
  <g id="LINE">
    <g id="LWPOLYLINE">
      <path class="cls-1" d="m.12.12v59.84h59.84V.12H.12Zm5.44,56.45c-1.12,0-2.04-.91-2.04-2.04s.92-2.04,2.04-2.04,2.04.92,2.04,2.04-.92,2.04-2.04,2.04Zm0-6.11c-1.12,0-2.04-.92-2.04-2.04s.92-2.04,2.04-2.04,2.04.91,2.04,2.04-.92,2.04-2.04,2.04Zm0-6.13c-1.12,0-2.04-.91-2.04-2.04s.92-2.04,2.04-2.04,2.04.92,2.04,2.04-.92,2.04-2.04,2.04Zm0-6.11c-1.12,0-2.04-.92-2.04-2.04s.92-2.04,2.04-2.04,2.04.91,2.04,2.04-.92,2.04-2.04,2.04Zm0-6.13c-1.12,0-2.04-.91-2.04-2.04s.92-2.04,2.04-2.04,2.04.92,2.04,2.04-.92,2.04-2.04,2.04Zm0-6.11c-1.12,0-2.04-.92-2.04-2.04s.92-2.04,2.04-2.04,2.04.92,2.04,2.04-.92,2.04-2.04,2.04Zm0-6.13c-1.12,0-2.04-.91-2.04-2.04s.92-2.04,2.04-2.04,2.04.92,2.04,2.04-.92,2.04-2.04,2.04Zm0-6.11c-1.12,0-2.04-.92-2.04-2.04s.92-2.04,2.04-2.04,2.04.92,2.04,2.04-.92,2.04-2.04,2.04Zm0-6.13c-1.12,0-2.04-.91-2.04-2.04s.92-2.03,2.04-2.03,2.04.91,2.04,2.03-.92,2.04-2.04,2.04Zm6.13,48.97c-1.14,0-2.04-.91-2.04-2.04s.91-2.04,2.04-2.04,2.03.92,2.03,2.04-.91,2.04-2.03,2.04Zm0-6.11c-1.14,0-2.04-.92-2.04-2.04s.91-2.04,2.04-2.04,2.03.91,2.03,2.04-.91,2.04-2.03,2.04Zm0-6.13c-1.14,0-2.04-.91-2.04-2.04s.91-2.04,2.04-2.04,2.03.92,2.03,2.04-.91,2.04-2.03,2.04Zm0-6.11c-1.14,0-2.04-.92-2.04-2.04s.91-2.04,2.04-2.04,2.03.91,2.03,2.04-.91,2.04-2.03,2.04Zm0-6.13c-1.14,0-2.04-.91-2.04-2.04s.91-2.04,2.04-2.04,2.03.92,2.03,2.04-.91,2.04-2.03,2.04Zm0-6.11c-1.14,0-2.04-.92-2.04-2.04s.91-2.04,2.04-2.04,2.03.92,2.03,2.04-.91,2.04-2.03,2.04Zm0-6.13c-1.14,0-2.04-.91-2.04-2.04s.91-2.04,2.04-2.04,2.03.92,2.03,2.04-.91,2.04-2.03,2.04Zm0-6.11c-1.14,0-2.04-.92-2.04-2.04s.91-2.04,2.04-2.04,2.03.92,2.03,2.04-.91,2.04-2.03,2.04Zm0-6.13c-1.14,0-2.04-.91-2.04-2.04s.91-2.03,2.04-2.03,2.03.91,2.03,2.03-.91,2.04-2.03,2.04Zm6.11,48.97c-1.12,0-2.04-.91-2.04-2.04s.92-2.04,2.04-2.04,2.04.92,2.04,2.04-.92,2.04-2.04,2.04Zm0-6.11c-1.12,0-2.04-.92-2.04-2.04s.92-2.04,2.04-2.04,2.04.91,2.04,2.04-.92,2.04-2.04,2.04Zm0-6.13c-1.12,0-2.04-.91-2.04-2.04s.92-2.04,2.04-2.04,2.04.92,2.04,2.04-.92,2.04-2.04,2.04Zm0-6.11c-1.12,0-2.04-.92-2.04-2.04s.92-2.04,2.04-2.04,2.04.91,2.04,2.04-.92,2.04-2.04,2.04Zm0-6.13c-1.12,0-2.04-.91-2.04-2.04s.92-2.04,2.04-2.04,2.04.92,2.04,2.04-.92,2.04-2.04,2.04Zm0-6.11c-1.12,0-2.04-.92-2.04-2.04s.92-2.04,2.04-2.04,2.04.92,2.04,2.04-.92,2.04-2.04,2.04Zm0-6.13c-1.12,0-2.04-.91-2.04-2.04s.92-2.04,2.04-2.04,2.04.92,2.04,2.04-.92,2.04-2.04,2.04Zm0-6.11c-1.12,0-2.04-.92-2.04-2.04s.92-2.04,2.04-2.04,2.04.92,2.04,2.04-.92,2.04-2.04,2.04Zm0-6.13c-1.12,0-2.04-.91-2.04-2.04s.92-2.03,2.04-2.03,2.04.91,2.04,2.03-.92,2.04-2.04,2.04Zm6.13,48.97c-1.14,0-2.04-.91-2.04-2.04s.91-2.04,2.04-2.04,2.03.92,2.03,2.04-.91,2.04-2.03,2.04Zm0-6.11c-1.14,0-2.04-.92-2.04-2.04s.91-2.04,2.04-2.04,2.03.91,2.03,2.04-.91,2.04-2.03,2.04Zm0-6.13c-1.14,0-2.04-.91-2.04-2.04s.91-2.04,2.04-2.04,2.03.92,2.03,2.04-.91,2.04-2.03,2.04Zm0-6.11c-1.14,0-2.04-.92-2.04-2.04s.91-2.04,2.04-2.04,2.03.91,2.03,2.04-.91,2.04-2.03,2.04Zm0-6.13c-1.14,0-2.04-.91-2.04-2.04s.91-2.04,2.04-2.04,2.03.92,2.03,2.04-.91,2.04-2.03,2.04Zm0-6.11c-1.14,0-2.04-.92-2.04-2.04s.91-2.04,2.04-2.04,2.03.92,2.03,2.04-.91,2.04-2.03,2.04Zm0-6.13c-1.14,0-2.04-.91-2.04-2.04s.91-2.04,2.04-2.04,2.03.92,2.03,2.04-.91,2.04-2.03,2.04Zm0-6.11c-1.14,0-2.04-.92-2.04-2.04s.91-2.04,2.04-2.04,2.03.92,2.03,2.04-.91,2.04-2.03,2.04Zm0-6.13c-1.14,0-2.04-.91-2.04-2.04s.91-2.03,2.04-2.03,2.03.91,2.03,2.03-.91,2.04-2.03,2.04Zm6.11,48.97c-1.12,0-2.04-.91-2.04-2.04s.92-2.04,2.04-2.04,2.04.92,2.04,2.04-.92,2.04-2.04,2.04Zm0-6.11c-1.12,0-2.04-.92-2.04-2.04s.92-2.04,2.04-2.04,2.04.91,2.04,2.04-.92,2.04-2.04,2.04Zm0-6.13c-1.12,0-2.04-.91-2.04-2.04s.92-2.04,2.04-2.04,2.04.92,2.04,2.04-.92,2.04-2.04,2.04Zm0-6.11c-1.12,0-2.04-.92-2.04-2.04s.92-2.04,2.04-2.04,2.04.91,2.04,2.04-.92,2.04-2.04,2.04Zm0-6.13c-1.12,0-2.04-.91-2.04-2.04s.92-2.04,2.04-2.04,2.04.92,2.04,2.04-.92,2.04-2.04,2.04Zm0-6.11c-1.12,0-2.04-.92-2.04-2.04s.92-2.04,2.04-2.04,2.04.92,2.04,2.04-.92,2.04-2.04,2.04Zm0-6.13c-1.12,0-2.04-.91-2.04-2.04s.92-2.04,2.04-2.04,2.04.92,2.04,2.04-.92,2.04-2.04,2.04Zm0-6.11c-1.12,0-2.04-.92-2.04-2.04s.92-2.04,2.04-2.04,2.04.92,2.04,2.04-.92,2.04-2.04,2.04Zm0-6.13c-1.12,0-2.04-.91-2.04-2.04s.92-2.03,2.04-2.03,2.04.91,2.04,2.03-.92,2.04-2.04,2.04Zm6.13,48.97c-1.14,0-2.04-.91-2.04-2.04s.91-2.04,2.04-2.04,2.03.92,2.03,2.04-.91,2.04-2.03,2.04Zm0-6.11c-1.14,0-2.04-.92-2.04-2.04s.91-2.04,2.04-2.04,2.03.91,2.03,2.04-.91,2.04-2.03,2.04Zm0-6.13c-1.14,0-2.04-.91-2.04-2.04s.91-2.04,2.04-2.04,2.03.92,2.03,2.04-.91,2.04-2.03,2.04Zm0-6.11c-1.14,0-2.04-.92-2.04-2.04s.91-2.04,2.04-2.04,2.03.91,2.03,2.04-.91,2.04-2.03,2.04Zm0-6.13c-1.14,0-2.04-.91-2.04-2.04s.91-2.04,2.04-2.04,2.03.92,2.03,2.04-.91,2.04-2.03,2.04Zm0-6.11c-1.14,0-2.04-.92-2.04-2.04s.91-2.04,2.04-2.04,2.03.92,2.03,2.04-.91,2.04-2.03,2.04Zm0-6.13c-1.14,0-2.04-.91-2.04-2.04s.91-2.04,2.04-2.04,2.03.92,2.03,2.04-.91,2.04-2.03,2.04Zm0-6.11c-1.14,0-2.04-.92-2.04-2.04s.91-2.04,2.04-2.04,2.03.92,2.03,2.04-.91,2.04-2.03,2.04Zm0-6.13c-1.14,0-2.04-.91-2.04-2.04s.91-2.03,2.04-2.03,2.03.91,2.03,2.03-.91,2.04-2.03,2.04Zm6.11,48.97c-1.12,0-2.04-.91-2.04-2.04s.92-2.04,2.04-2.04,2.04.92,2.04,2.04-.92,2.04-2.04,2.04Zm0-6.11c-1.12,0-2.04-.92-2.04-2.04s.92-2.04,2.04-2.04,2.04.91,2.04,2.04-.92,2.04-2.04,2.04Zm0-6.13c-1.12,0-2.04-.91-2.04-2.04s.92-2.04,2.04-2.04,2.04.92,2.04,2.04-.92,2.04-2.04,2.04Zm0-6.11c-1.12,0-2.04-.92-2.04-2.04s.92-2.04,2.04-2.04,2.04.91,2.04,2.04-.92,2.04-2.04,2.04Zm0-6.13c-1.12,0-2.04-.91-2.04-2.04s.92-2.04,2.04-2.04,2.04.92,2.04,2.04-.92,2.04-2.04,2.04Zm0-6.11c-1.12,0-2.04-.92-2.04-2.04s.92-2.04,2.04-2.04,2.04.92,2.04,2.04-.92,2.04-2.04,2.04Zm0-6.13c-1.12,0-2.04-.91-2.04-2.04s.92-2.04,2.04-2.04,2.04.92,2.04,2.04-.92,2.04-2.04,2.04Zm0-6.11c-1.12,0-2.04-.92-2.04-2.04s.92-2.04,2.04-2.04,2.04.92,2.04,2.04-.92,2.04-2.04,2.04Zm0-6.13c-1.12,0-2.04-.91-2.04-2.04s.92-2.03,2.04-2.03,2.04.91,2.04,2.03-.92,2.04-2.04,2.04Zm6.11,48.97c-1.12,0-2.03-.91-2.03-2.04s.91-2.04,2.03-2.04,2.04.92,2.04,2.04-.91,2.04-2.04,2.04Zm0-6.11c-1.12,0-2.03-.92-2.03-2.04s.91-2.04,2.03-2.04,2.04.91,2.04,2.04-.91,2.04-2.04,2.04Zm0-6.13c-1.12,0-2.03-.91-2.03-2.04s.91-2.04,2.03-2.04,2.04.92,2.04,2.04-.91,2.04-2.04,2.04Zm0-6.11c-1.12,0-2.03-.92-2.03-2.04s.91-2.04,2.03-2.04,2.04.91,2.04,2.04-.91,2.04-2.04,2.04Zm0-6.13c-1.12,0-2.03-.91-2.03-2.04s.91-2.04,2.03-2.04,2.04.92,2.04,2.04-.91,2.04-2.04,2.04Zm0-6.11c-1.12,0-2.03-.92-2.03-2.04s.91-2.04,2.03-2.04,2.04.92,2.04,2.04-.91,2.04-2.04,2.04Zm0-6.13c-1.12,0-2.03-.91-2.03-2.04s.91-2.04,2.03-2.04,2.04.92,2.04,2.04-.91,2.04-2.04,2.04Zm0-6.11c-1.12,0-2.03-.92-2.03-2.04s.91-2.04,2.03-2.04,2.04.92,2.04,2.04-.91,2.04-2.04,2.04Zm0-6.13c-1.12,0-2.03-.91-2.03-2.04s.91-2.03,2.03-2.03,2.04.91,2.04,2.03-.91,2.04-2.04,2.04Zm6.13,48.97c-1.12,0-2.04-.91-2.04-2.04s.92-2.04,2.04-2.04,2.04.92,2.04,2.04-.92,2.04-2.04,2.04Zm0-6.11c-1.12,0-2.04-.92-2.04-2.04s.92-2.04,2.04-2.04,2.04.91,2.04,2.04-.92,2.04-2.04,2.04Zm0-6.13c-1.12,0-2.04-.91-2.04-2.04s.92-2.04,2.04-2.04,2.04.92,2.04,2.04-.92,2.04-2.04,2.04Zm0-6.11c-1.12,0-2.04-.92-2.04-2.04s.92-2.04,2.04-2.04,2.04.91,2.04,2.04-.92,2.04-2.04,2.04Zm0-6.13c-1.12,0-2.04-.91-2.04-2.04s.92-2.04,2.04-2.04,2.04.92,2.04,2.04-.92,2.04-2.04,2.04Zm0-6.11c-1.12,0-2.04-.92-2.04-2.04s.92-2.04,2.04-2.04,2.04.92,2.04,2.04-.92,2.04-2.04,2.04Zm0-6.13c-1.12,0-2.04-.91-2.04-2.04s.92-2.04,2.04-2.04,2.04.92,2.04,2.04-.92,2.04-2.04,2.04Zm0-6.11c-1.12,0-2.04-.92-2.04-2.04s.92-2.04,2.04-2.04,2.04.92,2.04,2.04-.92,2.04-2.04,2.04Zm0-6.13c-1.12,0-2.04-.91-2.04-2.04s.92-2.03,2.04-2.03,2.04.91,2.04,2.03-.92,2.04-2.04,2.04Z"/>
    </g>
  </g>
</svg>