<?xml version="1.0" encoding="UTF-8"?>
<svg id="Layer_2" data-name="Layer 2" xmlns="http://www.w3.org/2000/svg" viewBox="0 0 51.25 114.39">
  <defs>
    <style>
      .cls-1 {
        stroke: #000;
        stroke-linecap: round;
        stroke-linejoin: round;
        stroke-width: .25px;
      }
    </style>
  </defs>
  <g id="LINE">
    <path class="cls-1" d="m37.75,75.13h-17.55C9.11,75.13.12,84.12.12,95.2v19.06h3.86c.25-6.8,2.85-12.24,6.29-13.51,3.44-1.28,7.7,1.61,8.22,6.99l.42,6.52h8.78c0-3.81,3.09-6.9,6.9-6.9s6.9,3.09,6.9,6.9h9.63v-25.75c0-7.39-5.99-13.38-13.38-13.38Zm-30.37,15.63c-.48,0-.87-.39-.87-.87s.39-.87.87-.87.87.39.87.87-.39.87-.87.87Z"/>
    <g id="REGION">
      <g id="LINE-2" data-name="LINE">
        <path class="cls-1" d="m36.33,35.16h-14.04c-8.87,0-16.06,7.19-16.06,16.06v15.24h2.48c.2-5.52,2.32-9.95,5.11-10.98,2.8-1.04,6.26,1.31,6.68,5.68l.35,5.3h7.13c0-3.1,2.52-5.61,5.62-5.61s5.61,2.51,5.61,5.61h7.83v-20.6c0-5.91-4.8-10.7-10.71-10.7Zm-24.06,12.37c-.49,0-.88-.4-.88-.89s.39-.88.88-.88.89.39.89.88-.4.89-.89.89Z"/>
      </g>
    </g>
    <path class="cls-1" d="m34.77.12h-10.53c-6.65,0-12.04,5.39-12.04,12.04v11.44h1.86c.15-4.14,1.74-7.46,3.84-8.24s4.69.98,5.01,4.26l.26,3.98h5.35c0-2.33,1.88-4.21,4.21-4.21s4.21,1.89,4.21,4.21h5.87v-15.45C42.8,3.72,39.2.12,34.77.12Zm-18.65,9.5c-.49,0-.89-.4-.89-.89s.4-.89.89-.89.89.4.89.89-.4.89-.89.89Z"/>
  </g>
</svg>