<?xml version="1.0" encoding="UTF-8"?>
<svg id="Layer_2" data-name="Layer 2" xmlns="http://www.w3.org/2000/svg" viewBox="0 0 50.39 59.48">
  <defs>
    <style>
      .cls-1 {
        stroke: #000;
        stroke-linecap: round;
        stroke-linejoin: round;
        stroke-width: .25px;
      }
    </style>
  </defs>
  <g id="LINE">
    <path class="cls-1" d="m50.26,27.3l-.05-.42-.1-.46-.15-.5-.2-.53-.25-.55-.29-.57-.32-.59-.36-.59-.77-1.17-.85-1.12-.43-.52-.43-.48-.44-.45-.43-.41-.44-.38-.43-.34-.44-.31-.44-.27-.44-.23-.44-.2-.45-.17-.45-.13-.45-.1-.46-.07-.95-.09-1-.1-.54-.09-.55-.12-.58-.18-.61-.24-.64-.31-.33-.19-.34-.21-.35-.24-.37-.26-.75-.59-.79-.66-.84-.73-.87-.79-.92-.82-.97-.86-1-.87-1.06-.87-1.1-.86-1.14-.85-1.2-.8-1.24-.77-1.27-.72-1.31-.67-1.33-.62-1.34-.58-1.34-.52-1.34-.46-1.33-.41-1.31-.34-1.28-.29-1.25-.23-1.2-.16-1.14-.09-1.09-.03-1.02.03-.49.03-.46.06-.44.06-.42.09-.4.09-.38.11-.35.13-.32.14-.3.15-.28.17-.24.18-.21.2-.19.21-.15.22-.13.24-.09.24-.05.27-.03.27v.29l.03.29.06.31.09.32.11.33.14.35.16.35.19.36.44.75.53.79.61.83.67.85.74.88.79.91.85.93.9.94.96.94,1.01.92,1.08.89,1.14.85,1.21.8.63.38.65.35.66.34.69.32.7.29.72.27.74.24.76.22.78.19.8.16.81.13.82.1,1.64.15,1.61.07h1.55l.74-.02.71-.03.68-.04.64-.05.59-.05.54-.06,1.78-.21c-12.59,6.8-21.32,19.04-23.66,33.16-1.55-1.37-3.92-1.22-5.28.33-1.37,1.55-1.22,3.92.33,5.28.69.6,1.57.94,2.48.94h10.01c0-2.8,2.27-5.07,5.07-5.07s5.06,2.27,5.06,5.07h8.1c.37,0,.67-.31.67-.68,0-.05,0-.1-.02-.15l-.11-.52-.13-.64-.13-.73-.15-.81-.14-.86-.15-.9-.27-1.83-.12-.9-.11-.87-.15-1.65-.04-.81v-.8l.03-.81.07-.83.12-.84.16-.87.22-.91.28-.95.33-1.01.41-1.05.47-1.08.54-1.09.63-1.07.71-1.03.79-.96.44-.45.45-.42.48-.39.51-.37.53-.33.56-.29.58-.26.61-.21.64-.16.66-.12,1.26-.12.59-.05.56-.07.51-.08.48-.09.44-.11.41-.12.39-.13.36-.14.33-.16.31-.16.57-.37.5-.4.23-.23.2-.24.18-.26.15-.28.11-.31.08-.33.05-.36v-.39Zm-6.74-2.69c-.79,0-1.44-.64-1.44-1.43s.65-1.44,1.44-1.44,1.43.65,1.43,1.44-.64,1.43-1.43,1.43Z"/>
  </g>
</svg>