<?xml version="1.0" encoding="UTF-8"?>
<svg id="Layer_2" data-name="Layer 2" xmlns="http://www.w3.org/2000/svg" viewBox="0 0 27.44 77.38">
  <defs>
    <style>
      .cls-1 {
        fill: #aaa5a5;
        stroke-width: 0px;
      }
    </style>
  </defs>
  <g id="Layer_2-2" data-name="Layer 2">
    <g id="LINE">
      <g id="LWPOLYLINE">
        <path class="cls-1" d="m0,47.71v29.67s4.26,0,4.26,0v-10c0-3.09,2.54-5.61,5.63-5.61s5.61,2.52,5.61,5.61v10s4.26,0,4.26,0V13.49c1.3,1.45,3.11,2.36,5.05,2.54,1.02.01,1.96-.57,2.44-1.48.38-1.19.19-2.51-.58-3.55l-2.15-3.37c-.25-.39-.14-.92.26-1.18.08-.04.15-.07.24-.1l1.17-.31s.06-.03.09-.04c.44-.16.65-.66.49-1.1l-.4-1.01c.11.28.1.28,0,0-.17-.43-.67-.65-1.1-.46l-2.24.91c-.44.19-.93-.02-1.12-.46-.03-.1-.06-.22-.06-.33V.85C21.84.38,21.47,0,20.99,0h-.96c-.47,0-.85.37-.85.85v2.91c0,.47-.39.85-.85.85h-2.84c.33,9.54-.36,19.1-2.05,28.51-.84,3.52-2.56,6.76-5.02,9.43C5.94,44.74,3.09,46.49,0,47.71ZM20.39,8.01c0-.62.51-1.12,1.12-1.12s1.1.5,1.1,1.12c0,.62-.49,1.12-1.1,1.12s-1.12-.5-1.12-1.12Z"/>
      </g>
    </g>
  </g>
</svg>