<?xml version="1.0" encoding="UTF-8"?>
<svg id="Layer_2" data-name="Layer 2" xmlns="http://www.w3.org/2000/svg" viewBox="0 0 9.45 8.41">
  <defs>
    <style>
      .cls-1 {
        stroke-linejoin: round;
        stroke-width: .12px;
      }

      .cls-1, .cls-2 {
        fill: none;
        stroke: #000;
        stroke-linecap: round;
      }

      .cls-2 {
        stroke-miterlimit: 10;
      }

      .cls-2, .cls-3 {
        stroke-width: 0px;
      }

      .cls-3 {
        fill: #010101;
      }
    </style>
  </defs>
  <g id="Layer_1-2" data-name="Layer 1">
    <g>
      <polyline class="cls-1" points="4.71 7.19 2.43 .06 .09 7.19"/>
      <path class="cls-1" d="m.06,7.14c.49.75,1.38,1.21,2.34,1.21s1.84-.46,2.34-1.21"/>
      <polygon class="cls-3" points="2.43 .06 4.71 7.19 .09 7.19 2.43 .06"/>
      <polygon class="cls-2" points="2.43 .06 4.71 7.19 .09 7.19 2.43 .06"/>
      <polygon class="cls-3" points="7.05 .06 9.39 7.19 4.71 7.19 7.05 .06"/>
      <polygon class="cls-2" points="7.05 .06 9.39 7.19 4.71 7.19 7.05 .06"/>
      <path class="cls-3" d="m4.71,7.19l4.38.39h-4.08s-.3-.39-.3-.39Zm4.68,0h-4.68s4.38.39,4.38.39l.3-.39Z"/>
      <path class="cls-2" d="m4.71,7.19l4.38.39h-4.08s-.3-.39-.3-.39Zm4.68,0h-4.68s4.38.39,4.38.39l.3-.39Z"/>
      <path class="cls-3" d="m.09,7.19l4.32.39H.39s-.3-.39-.3-.39Zm4.62,0H.09s4.32.39,4.32.39l.3-.39Z"/>
      <path class="cls-2" d="m.09,7.19l4.32.39H.39s-.3-.39-.3-.39Zm4.62,0H.09s4.32.39,4.32.39l.3-.39Z"/>
      <path class="cls-3" d="m5.01,7.58l3.66.28h-3.24s-.42-.28-.42-.28Zm4.08,0h-4.08s3.66.28,3.66.28l.42-.28Z"/>
      <path class="cls-2" d="m5.01,7.58l3.66.28h-3.24s-.42-.28-.42-.28Zm4.08,0h-4.08s3.66.28,3.66.28l.42-.28Z"/>
      <path class="cls-3" d="m.39,7.58l3.66.28H.75s-.36-.28-.36-.28Zm4.02,0H.39s3.66.28,3.66.28l.36-.28Z"/>
      <path class="cls-2" d="m.39,7.58l3.66.28H.75s-.36-.28-.36-.28Zm4.02,0H.39s3.66.28,3.66.28l.36-.28Z"/>
      <path class="cls-3" d="m5.43,7.85l2.82.28h-2.4s-.42-.28-.42-.28Zm3.24,0h-3.24s2.82.28,2.82.28l.42-.28Z"/>
      <path class="cls-2" d="m5.43,7.85l2.82.28h-2.4s-.42-.28-.42-.28Zm3.24,0h-3.24s2.82.28,2.82.28l.42-.28Z"/>
      <path class="cls-3" d="m.75,7.85l2.88.28H1.17s-.42-.28-.42-.28Zm3.3,0H.75s2.88.28,2.88.28l.42-.28Z"/>
      <path class="cls-2" d="m.75,7.85l2.88.28H1.17s-.42-.28-.42-.28Zm3.3,0H.75s2.88.28,2.88.28l.42-.28Z"/>
      <path class="cls-3" d="m5.81,8.11l1.92.17h-1.44s-.48-.17-.48-.17Zm2.4,0h-2.4s1.92.17,1.92.17l.48-.17Z"/>
      <path class="cls-2" d="m5.81,8.11l1.92.17h-1.44s-.48-.17-.48-.17Zm2.4,0h-2.4s1.92.17,1.92.17l.48-.17Z"/>
      <path class="cls-3" d="m1.13,8.11l1.98.17h-1.5s-.48-.17-.48-.17Zm2.46,0H1.13s1.98.17,1.98.17l.48-.17Z"/>
      <path class="cls-2" d="m1.13,8.11l1.98.17h-1.5s-.48-.17-.48-.17Zm2.46,0H1.13s1.98.17,1.98.17l.48-.17Z"/>
      <path class="cls-3" d="m6.29,8.28l.96.06h-.48s-.48-.06-.48-.06Zm1.44,0h-1.44s.96.06.96.06l.48-.06Z"/>
      <path class="cls-2" d="m6.29,8.28l.96.06h-.48s-.48-.06-.48-.06Zm1.44,0h-1.44s.96.06.96.06l.48-.06Z"/>
      <path class="cls-3" d="m1.56,8.28l1.02.06h-.48s-.54-.06-.54-.06Zm1.5,0h-1.5s1.02.06,1.02.06l.48-.06Z"/>
      <path class="cls-2" d="m1.56,8.28l1.02.06h-.48s-.54-.06-.54-.06Zm1.54,0h-1.5s1.02.06,1.02.06l.48-.06Z"/>
      <polyline class="cls-1" points="9.39 7.19 7.05 .06 4.71 7.19"/>
      <path class="cls-1" d="m4.68,7.14c.49.75,1.38,1.21,2.34,1.21s1.84-.46,2.34-1.21"/>
    </g>
  </g>
</svg>