<?xml version="1.0" encoding="UTF-8"?>
<svg id="Layer_2" data-name="Layer 2" xmlns="http://www.w3.org/2000/svg" viewBox="0 0 159.73 51.25">
  <defs>
    <style>
      .cls-1 {
        stroke: #000;
        stroke-linecap: round;
        stroke-linejoin: round;
        stroke-width: .25px;
      }
    </style>
  </defs>
  <g id="LINE">
    <g id="LWPOLYLINE">
      <path class="cls-1" d="m159.6.12h-10.95v35.95c0,2.84-2.3,5.13-5.13,5.13s-5.13-2.3-5.13-5.13V.12h-10.95v35.95c0,2.84-2.3,5.13-5.13,5.13s-5.13-2.3-5.13-5.13V.12h-10.95v35.95c0,2.84-2.3,5.13-5.13,5.13s-5.13-2.3-5.13-5.13V.12h-10.95v35.95c0,2.84-2.3,5.13-5.13,5.13s-5.13-2.3-5.13-5.13V.12h-10.95v35.95c0,2.84-2.3,5.13-5.13,5.13s-5.13-2.3-5.13-5.13V.12h-10.95v35.95c0,2.84-2.3,5.13-5.13,5.13s-5.13-2.3-5.13-5.13V.12h-10.95v35.95c0,2.84-2.3,5.13-5.13,5.13s-5.13-2.3-5.13-5.13V.12H.12v51h159.48V.12Z"/>
    </g>
  </g>
</svg>