<?xml version="1.0" encoding="UTF-8"?>
<svg id="Layer_2" data-name="Layer 2" xmlns="http://www.w3.org/2000/svg" viewBox="0 0 68 68.43">
  <defs>
    <style>
      .cls-1 {
        fill-rule: evenodd;
      }

      .cls-1, .cls-2 {
        fill: #c10202;
        stroke-width: 0px;
      }
    </style>
  </defs>
  <g id="LINE">
    <g id="SPLINE">
      <path class="cls-2" d="m51.35,58.41c-5.91-1.67-10.37-5.89-12.35-11.7-1.56-5.74-3.11-11.48-4.67-17.22,1.98-1.72,4.53-2.32,7.06-1.66,2.54.67,4.46,2.44,5.34,4.91.71-2.54,2.77-4.19,5.41-4.31,2.63-.13,4.84,1.31,5.79,3.77.45-1.88,1.61-3.42,3.3-4.36,1.69-.95,3.62-1.13,5.46-.51-3.56-3.35-8.12-5.11-13.01-5.01,2.44-2.48,5.65-3.79,9.12-3.74-.2-.72-14.47-14.39-30.79,2.49-1.21-4.38-2.43-8.98-3.61-13.69-.6-2.39-2.34-4.13-4.72-4.75C.7-3.28.18,2.08.04,6.01c-.15,4.02.08,6.56,1.88,8.47,1.79,1.91,5.16,3.2,9.01,2.57,3.86-.63,8.2-3.17,10.57-2.89,2.37.28,2.76,3.38,2.35,7.19-.4,3.82-1.6,8.35-2.89,10.1s-2.67.72-3.79.49c-2.22-.44-3.37,2.34-1.18,3.9,1.09.77,3.01,1.24,2.43,4.95-.58,3.72-3.68,10.68-3.38,17.84.19,4.64,1.8,9.36,7.51,9.8h22.59c9.65-.29,17.96-5.22,22.86-13.54-4.73,3.91-10.74,5.18-16.65,3.52ZM16.62,7.58l1.41-3.5,1.42,3.5h-2.83Z"/>
    </g>
    <g id="HATCH">
      <path class="cls-1" d="m51.35,58.41c-5.91-1.67-10.37-5.89-12.35-11.7-1.56-5.74-3.11-11.48-4.67-17.22,1.98-1.72,4.53-2.32,7.06-1.66,2.54.67,4.46,2.44,5.34,4.91.71-2.54,2.77-4.19,5.41-4.31,2.63-.13,4.84,1.31,5.79,3.77.45-1.88,1.61-3.42,3.3-4.36,1.69-.95,3.62-1.13,5.46-.51-3.56-3.35-8.12-5.11-13.01-5.01,2.44-2.48,5.65-3.79,9.12-3.74-.2-.72-14.47-14.39-30.79,2.49-1.21-4.38-2.43-8.98-3.61-13.69-.6-2.39-2.34-4.13-4.72-4.75C.7-3.28.18,2.08.04,6.01c-.15,4.02.08,6.56,1.88,8.47,1.79,1.91,5.16,3.2,9.01,2.57,3.86-.63,8.2-3.17,10.57-2.89,2.37.28,2.76,3.38,2.35,7.19-.4,3.82-1.6,8.35-2.89,10.1s-2.67.72-3.79.49c-2.22-.44-3.37,2.34-1.18,3.9,1.09.77,3.01,1.24,2.43,4.95-.58,3.72-3.68,10.68-3.38,17.84.19,4.64,1.8,9.36,7.51,9.8h22.59c9.65-.29,17.96-5.22,22.86-13.54-4.73,3.91-10.74,5.18-16.65,3.52ZM16.62,7.58l1.41-3.5,1.42,3.5h-2.83Z"/>
    </g>
    <g id="REGION">
      <g id="LINE-2" data-name="LINE">
        <line class="cls-2" x1="19.45" y1="7.58" x2="18.03" y2="4.08"/>
      </g>
      <g id="LINE-3" data-name="LINE">
        <line class="cls-2" x1="18.03" y1="4.08" x2="16.62" y2="7.58"/>
      </g>
    </g>
  </g>
</svg>