<?xml version="1.0" encoding="UTF-8"?>
<svg id="Layer_2" data-name="Layer 2" xmlns="http://www.w3.org/2000/svg" viewBox="0 0 66.15 76.61">
  <defs>
    <style>
      .cls-1 {
        fill: #c10202;
        stroke-width: 0px;
      }
    </style>
  </defs>
  <g id="LINE">
    <g id="LWPOLYLINE">
      <path class="cls-1" d="m59.88,0c-2.23,0-4.17,1.54-4.69,3.71l-5.21,21.5c-.88,3.65-2.81,6.96-5.54,9.54l-2.6,2.46c-.46-.5-1.23-.52-1.71-.06-.5.46-.52,1.23-.06,1.71l-1.75,1.65c-.46-.48-1.23-.5-1.71-.06-.5.46-.52,1.23-.06,1.71l-1.75,1.65c-.46-.48-1.23-.5-1.71-.04-.48.46-.52,1.21-.06,1.71l-1.75,1.65c-.46-.48-1.23-.52-1.71-.06s-.52,1.23-.06,1.71l-1.75,1.65c-.46-.48-1.23-.5-1.71-.04-.48.44-.52,1.21-.06,1.69l-1.75,1.67c-.46-.5-1.23-.52-1.71-.06s-.52,1.23-.06,1.71l-1.73,1.63c-.46-.48-1.23-.52-1.71-.06-.48.46-.52,1.23-.06,1.71l-1.75,1.65c-.46-.48-1.23-.5-1.71-.04-.48.44-.5,1.21-.06,1.69l-1.75,1.67c-.46-.5-1.23-.52-1.71-.06s-.5,1.23-.06,1.71l-1.75,1.65c-.46-.48-1.23-.5-1.71-.06-.48.46-.5,1.23-.06,1.71l-1.75,1.65c-.46-.48-1.23-.5-1.71-.04s-.5,1.21-.06,1.71l-1.75,1.65c-.46-.48-1.23-.52-1.71-.06-.48.46-.5,1.23-.06,1.71l-1.37,1.29,20.74-6.67c.48-.15.98-.23,1.48-.23,2.67,0,4.85,2.17,4.85,4.85v2.06h4.83c0-5.35,4.33-9.68,9.68-9.68s9.68,4.33,9.68,9.68h4.83V19.08c0-7.04,3.83-13.52,10-16.93l.08-2.15h-6.27Zm-.13,4.48c-.88,0-1.6-.71-1.6-1.6s.71-1.58,1.6-1.58,1.58.71,1.58,1.58-.71,1.6-1.58,1.6Z"/>
    </g>
  </g>
</svg>