<?xml version="1.0" encoding="UTF-8"?>
<svg id="Layer_2" data-name="Layer 2" xmlns="http://www.w3.org/2000/svg" viewBox="0 0 103.79 50.2">
  <defs>
    <style>
      .cls-1 {
        fill: #c10202;
        stroke-width: 0px;
      }
    </style>
  </defs>
  <g id="LINE">
    <g id="LWPOLYLINE">
      <path class="cls-1" d="m101.81,7.3c-.13-.04-.25-.04-.38-.04H26.58c.38-1.34.18-2.77-.54-3.97-.91-1.31-2.34-2.15-3.94-2.31l-9.2-.98c2.45.88,4.89,1.81,7.32,2.77.29.11.55.23.79.41.36.21.66.48.93.81.16.14.29.32.39.5.52,1,.14,2.24-.86,2.76l-12.19,6.46c-.63.29-1.29.47-1.97.54C4.33,14.69,1.4,13.19,0,10.5c-.09,2.76,1.54,5.26,4.08,6.32,1.66.59,3.45.73,5.21.47l-1.25,8.34.25.14c1.5.89,3.22.73,4.96.59,6.07-.48,20.9,3.97,21.89,23.84h6.08c.3-.32.63-.63.95-.95,13.83-13.3,35.83-12.87,49.12.95h6.08l6.39-40.21c.21-1.27-.68-2.49-1.95-2.68ZM18.31,19.2c-1.41,0-2.54-1.15-2.54-2.54s1.13-2.54,2.54-2.54,2.54,1.13,2.54,2.54-1.15,2.54-2.54,2.54Z"/>
    </g>
  </g>
</svg>