<?xml version="1.0" encoding="UTF-8"?>
<svg id="Layer_2" data-name="Layer 2" xmlns="http://www.w3.org/2000/svg" viewBox="0 0 22.16 62.02">
  <defs>
    <style>
      .cls-1 {
        stroke-linecap: round;
        stroke-linejoin: round;
      }

      .cls-1, .cls-2 {
        stroke: #000;
        stroke-width: .25px;
      }

      .cls-2 {
        fill: none;
        stroke-miterlimit: 10;
      }
    </style>
  </defs>
  <g id="Layer_2-2" data-name="Layer 2">
    <g id="LINE">
      <g id="HATCH">
        <path class="cls-2" d="m21.45,8.93l-1.72-2.69m-7.23,47.68v7.98s3.4,0,3.4,0V10.9M.13,38.21v23.68s3.4,0,3.4,0v-7.98"/>
      </g>
      <g id="LWPOLYLINE">
        <path class="cls-1" d="m6.84,34.09c-1.98,1.75-4.25,3.15-6.72,4.12v23.68s3.4,0,3.4,0v-7.98c0-2.47,2.02-4.48,4.49-4.48s4.48,2.01,4.48,4.48v7.98s3.4,0,3.4,0V10.89c1.04,1.16,2.48,1.89,4.03,2.03.82.01,1.57-.45,1.95-1.18.31-.95.15-2-.43-2.82l-1.72-2.69c-.2-.31-.11-.73.21-.94.06-.03.12-.06.19-.08l.93-.25s.05-.03.07-.03c.35-.13.52-.53.39-.88l-.32-.81c.09.23.08.22,0,0-.14-.35-.54-.52-.88-.37l-1.79.73c-.35.15-.74-.02-.89-.37-.03-.08-.05-.17-.05-.26V.81c0-.38-.3-.68-.68-.68h-.77c-.38,0-.68.3-.68.68v2.32c0,.38-.31.68-.68.68h-2.27c.26,7.62-.29,15.25-1.64,22.76-.67,2.81-2.05,5.4-4.01,7.53h0ZM16.41,6.54c0-.49.4-.89.89-.89s.88.4.88.89-.39.89-.88.89-.89-.4-.89-.89Z"/>
      </g>
    </g>
  </g>
</svg>