<?xml version="1.0" encoding="UTF-8"?>
<svg id="Layer_2" data-name="Layer 2" xmlns="http://www.w3.org/2000/svg" viewBox="0 0 51.26 25.06">
  <defs>
    <style>
      .cls-1 {
        stroke: #000;
        stroke-linecap: round;
        stroke-linejoin: round;
        stroke-width: .25px;
      }
    </style>
  </defs>
  <g id="LINE">
    <g id="LWPOLYLINE">
      <path class="cls-1" d="m44.58,6.1c-7.86,1.87-16.15.32-22.8-4.26-1.35-.73-2.78-1.3-4.25-1.72-.28,1.28.53,2.55,1.81,2.83.29.07.59.07.88.03-2.2,3.27-5.02,6.07-8.3,8.26-2.03-.62-3.71-2.04-4.68-3.92,0,2.01.64,3.97,1.82,5.6-.06.04-.12.07-.18.1C5.15,10.52,2.12,7.09.12,3.07c0,7.48,3.52,14.52,9.49,19.02,4.44-.5,8.79-1.57,12.95-3.18,2.37,1.25,4.12,3.44,4.82,6.03h5.93c0-1.85,1.5-3.35,3.34-3.35s3.35,1.5,3.35,3.35h6.05c1.66-3.69,2.59-7.66,2.75-11.7.82.39,1.6.86,2.33,1.39-1.25-3.45-3.54-6.43-6.55-8.52Zm-30.34,7.75c-.62,0-1.13-.51-1.13-1.13h2.25c0,.62-.5,1.13-1.12,1.13Z"/>
    </g>
  </g>
</svg>