<?xml version="1.0" encoding="UTF-8"?>
<svg id="Layer_2" data-name="Layer 2" xmlns="http://www.w3.org/2000/svg" viewBox="0 0 51.26 25.07">
  <defs>
    <style>
      .cls-1 {
        stroke: #000;
        stroke-linecap: round;
        stroke-linejoin: round;
        stroke-width: .25px;
      }
    </style>
  </defs>
  <g id="Layer_2-2" data-name="Layer 2">
    <g id="LINE">
      <g id="LWPOLYLINE">
        <path class="cls-1" d="m6.67,6.12C3.67,8.21,1.38,11.19.12,14.64c.73-.53,1.51-1,2.33-1.39.16,4.04,1.09,8.01,2.75,11.7h6.05c0-1.85,1.51-3.35,3.35-3.35s3.34,1.5,3.34,3.35h5.93c.7-2.59,2.45-4.78,4.82-6.03,4.16,1.61,8.51,2.68,12.95,3.18,5.97-4.5,9.49-11.54,9.49-19.02-2,4.02-5.03,7.45-8.76,9.95-.06-.03-.12-.06-.18-.1,1.18-1.63,1.82-3.59,1.82-5.6-.97,1.88-2.65,3.3-4.68,3.92-3.28-2.19-6.1-4.99-8.3-8.26.29.04.59.04.88-.03,1.28-.28,2.09-1.55,1.81-2.83-1.47.42-2.9.99-4.25,1.72-6.65,4.58-14.94,6.13-22.8,4.26h0Zm29.22,6.61h2.25c0,.62-.51,1.13-1.13,1.13s-1.12-.51-1.12-1.13Z"/>
      </g>
    </g>
  </g>
</svg>