<?xml version="1.0" encoding="UTF-8"?>
<svg id="Layer_2" data-name="Layer 2" xmlns="http://www.w3.org/2000/svg" viewBox="0 0 76.58 37.23">
  <defs>
    <style>
      .cls-1 {
        fill: #aaa5a5;
        stroke-width: 0px;
      }
    </style>
  </defs>
  <g id="Layer_2-2" data-name="Layer 2">
    <g id="LINE">
      <g id="LWPOLYLINE">
        <path class="cls-1" d="m9.83,8.97C5.31,12.11,1.88,16.58,0,21.76c1.1-.8,2.27-1.5,3.5-2.09.24,6.06,1.64,12.02,4.13,17.56h9.08c0-2.78,2.27-5.03,5.03-5.03s5.01,2.25,5.01,5.03h8.9c1.06-3.89,3.68-7.17,7.24-9.05,6.25,2.41,12.78,4.02,19.44,4.77,8.97-6.75,14.25-17.32,14.25-28.55-3,6.05-7.54,11.2-13.15,14.98-.09-.04-.18-.09-.27-.15,1.77-2.45,2.73-5.39,2.73-8.41-1.46,2.82-3.98,4.95-7.03,5.88-4.92-3.29-9.16-7.49-12.46-12.4.43.06.88.06,1.32-.05,1.92-.42,3.14-2.33,2.72-4.25-2.21.63-4.35,1.48-6.38,2.58-9.98,6.87-22.42,9.2-34.22,6.39h-.01Zm43.87,9.93h3.38c0,.93-.77,1.7-1.7,1.7s-1.68-.77-1.68-1.7Z"/>
      </g>
    </g>
  </g>
</svg>