<?xml version="1.0" encoding="UTF-8"?>
<svg id="Layer_2" data-name="Layer 2" xmlns="http://www.w3.org/2000/svg" viewBox="0 0 58.25 28.3">
  <defs>
    <style>
      .cls-1 {
        stroke: #000;
        stroke-linecap: round;
        stroke-linejoin: round;
        stroke-width: .25px;
      }
    </style>
  </defs>
  <g id="Layer_2-2" data-name="Layer 2">
    <g id="LINE">
      <g id="LWPOLYLINE">
        <path class="cls-1" d="m.14,5.7l3.57,22.47h3.4c7.43-7.72,19.72-7.96,27.45-.53.18.18.36.35.53.53h3.4c.55-11.1,8.84-13.59,12.23-13.32.97.08,1.93.17,2.77-.33l.14-.08-.7-4.66c.98.15,1.98.07,2.91-.26,1.42-.59,2.33-1.99,2.28-3.53-.78,1.5-2.42,2.34-4.09,2.09-.38-.04-.75-.14-1.1-.3l-6.81-3.61c-.56-.29-.77-.98-.48-1.54.06-.1.13-.2.22-.28.15-.18.32-.33.52-.45.13-.1.28-.17.44-.23,1.36-.54,2.72-1.06,4.09-1.55l-5.14.55c-.89.09-1.69.56-2.2,1.29-.4.67-.51,1.47-.3,2.22H1.44c-.07,0-.14,0-.21.02-.71.11-1.21.79-1.09,1.5Zm46.33,3.73c0-.79.63-1.42,1.42-1.42s1.42.64,1.42,1.42-.63,1.42-1.42,1.42-1.42-.63-1.42-1.42Z"/>
      </g>
    </g>
  </g>
</svg>