<?xml version="1.0" encoding="UTF-8"?>
<svg id="Layer_2" data-name="Layer 2" xmlns="http://www.w3.org/2000/svg" viewBox="0 0 103.79 50.2">
  <defs>
    <style>
      .cls-1 {
        fill: #aaa5a5;
        stroke-width: 0px;
      }
    </style>
  </defs>
  <g id="Layer_2-2" data-name="Layer 2">
    <g id="LINE">
      <g id="LWPOLYLINE">
        <path class="cls-1" d="m1.98,7.31C.71,7.5-.18,8.72.03,9.99l6.39,40.21h6.08c13.29-13.82,35.29-14.25,49.12-.95.32.32.65.63.95.95h6.08c.99-19.87,15.82-24.32,21.89-23.84,1.74.14,3.46.3,4.96-.59l.25-.14-1.25-8.34c1.76.26,3.55.12,5.21-.47,2.54-1.06,4.17-3.56,4.08-6.32-1.4,2.69-4.33,4.19-7.31,3.75-.68-.07-1.34-.25-1.97-.54l-12.19-6.46c-1-.52-1.38-1.76-.86-2.76.1-.18.23-.36.39-.5.27-.33.57-.6.93-.81.24-.18.5-.3.79-.41,2.43-.96,4.87-1.89,7.32-2.77l-9.2.98c-1.6.16-3.03,1-3.94,2.31-.72,1.2-.92,2.63-.54,3.97H2.36c-.13,0-.25,0-.38.04h0Zm80.96,9.35c0-1.41,1.13-2.54,2.54-2.54s2.54,1.15,2.54,2.54-1.13,2.54-2.54,2.54-2.54-1.13-2.54-2.54Z"/>
      </g>
    </g>
  </g>
</svg>