<?xml version="1.0" encoding="UTF-8"?>
<svg id="Layer_2" data-name="Layer 2" xmlns="http://www.w3.org/2000/svg" viewBox="0 0 76.13 27.29">
  <defs>
    <style>
      .cls-1 {
        stroke: #000;
        stroke-linecap: round;
        stroke-linejoin: round;
        stroke-width: .25px;
      }
    </style>
  </defs>
  <g id="LINE">
    <g id="LWPOLYLINE">
      <path class="cls-1" d="m63.2,18.14c0,1.66-1.34,3.01-3,3.01s-3.01-1.35-3.01-3.01v-6c0-4.98-4.03-9.01-9.01-9.01s-9.01,4.03-9.01,9.01v6c0,1.66-1.34,3.01-3,3.01s-3-1.35-3-3.01v-6c0-4.98-4.04-9.01-9.01-9.01s-9.01,4.03-9.01,9.01v6c0,1.66-1.35,3.01-3.01,3.01s-3-1.35-3-3.01V.12H.12C.12,3.45,2.81,6.13,6.14,6.13.88,9.71-.48,16.88,3.1,22.14c1.38,2.02,3.37,3.56,5.69,4.37,4.62,1.85,9.86-.4,11.71-5.02.42-1.07.64-2.2.64-3.35v-6c0-1.66,1.35-3.01,3.01-3.01s3,1.35,3,3.01v6c0,4.98,4.03,9.02,9.01,9.02s9.01-4.04,9.01-9.02v-6c0-1.66,1.34-3.01,3-3.01s3.01,1.35,3.01,3.01v12.01c0,1.66,1.34,3.01,3,3.01h21.82l-12.81-9.02ZM6.97,3.52l-2.47-1,2.47-1v2Z"/>
    </g>
  </g>
</svg>