<?xml version="1.0" encoding="UTF-8"?>
<svg id="Layer_2" data-name="Layer 2" xmlns="http://www.w3.org/2000/svg" viewBox="0 0 66.17 76.52">
  <defs>
    <style>
      .cls-1 {
        fill: #c10202;
        stroke-width: 0px;
      }
    </style>
  </defs>
  <g id="Layer_2-2" data-name="Layer 2">
    <g id="LINE">
      <g id="LWPOLYLINE">
        <path class="cls-1" d="m6.27,0H0s.08,2.15.08,2.15c6.17,3.41,10,9.89,10,16.93v57.44s4.83,0,4.83,0c0-5.35,4.33-9.68,9.68-9.68s9.68,4.33,9.68,9.68h4.83s0-2.06,0-2.06c0-2.68,2.18-4.85,4.85-4.85.5,0,1,.08,1.48.23l20.74,6.67-1.37-1.29c.44-.48.42-1.25-.06-1.71s-1.25-.42-1.71.06l-1.75-1.65c.44-.5.42-1.25-.06-1.71s-1.25-.44-1.71.04l-1.75-1.65c.44-.48.42-1.25-.06-1.71-.48-.44-1.25-.42-1.71.06l-1.75-1.65c.44-.48.42-1.25-.06-1.71-.48-.46-1.25-.44-1.71.06l-1.75-1.67c.44-.48.42-1.25-.06-1.69-.48-.46-1.25-.44-1.71.04l-1.75-1.65c.46-.48.42-1.25-.06-1.71-.48-.46-1.25-.42-1.71.06l-1.73-1.63c.46-.48.42-1.25-.06-1.71s-1.25-.44-1.71.06l-1.75-1.67c.46-.48.42-1.25-.06-1.69-.48-.46-1.25-.44-1.71.04l-1.75-1.65c.46-.48.42-1.25-.06-1.71s-1.25-.42-1.71.06l-1.75-1.65c.46-.5.42-1.25-.06-1.71s-1.25-.44-1.71.04l-1.75-1.65c.46-.48.44-1.25-.06-1.71-.48-.44-1.25-.42-1.71.06l-1.75-1.65c.46-.48.44-1.25-.06-1.71-.48-.46-1.25-.44-1.71.06l-2.6-2.46c-2.73-2.58-4.66-5.89-5.54-9.54L10.98,3.71C10.46,1.54,8.52,0,6.29,0h-.02Zm-1.43,2.88c0-.87.69-1.58,1.58-1.58s1.6.69,1.6,1.58-.72,1.6-1.6,1.6-1.58-.73-1.58-1.6Z"/>
      </g>
    </g>
  </g>
</svg>