<?xml version="1.0" encoding="UTF-8"?>
<svg id="Layer_2" data-name="Layer 2" xmlns="http://www.w3.org/2000/svg" viewBox="0 0 30.6 23.48">
  <defs>
    <style>
      .cls-1 {
        fill: #c10202;
        stroke-width: 0px;
      }
    </style>
  </defs>
  <g id="LINE">
    <path class="cls-1" d="m22.57,0h-10.53C5.39,0,0,5.39,0,12.04v11.44h1.86c.15-4.14,1.74-7.46,3.84-8.24s4.69.98,5.01,4.26l.26,3.98h5.35c0-2.33,1.88-4.21,4.21-4.21s4.21,1.89,4.21,4.21h5.87v-15.45c0-4.43-3.59-8.03-8.03-8.03ZM3.92,9.5c-.49,0-.89-.4-.89-.89s.4-.89.89-.89.89.4.89.89-.4.89-.89.89Z"/>
  </g>
</svg>