<?xml version="1.0" encoding="UTF-8"?>
<svg id="Layer_2" data-name="Layer 2" xmlns="http://www.w3.org/2000/svg" viewBox="0 0 58.25 28.3">
  <defs>
    <style>
      .cls-1 {
        stroke: #000;
        stroke-linecap: round;
        stroke-linejoin: round;
        stroke-width: .25px;
      }
    </style>
  </defs>
  <g id="LINE">
    <g id="LWPOLYLINE">
      <path class="cls-1" d="m57.02,4.2c-.07-.02-.14-.02-.21-.02H14.98c.21-.75.1-1.55-.3-2.22-.51-.73-1.31-1.2-2.2-1.29L7.34.12c1.37.49,2.73,1.01,4.09,1.55.16.06.31.13.44.23.2.12.37.27.52.45.09.08.16.18.22.28.29.56.08,1.25-.48,1.54l-6.81,3.61c-.35.16-.72.26-1.1.3-1.67.25-3.31-.59-4.09-2.09-.05,1.54.86,2.94,2.28,3.53.93.33,1.93.41,2.91.26l-.7,4.66.14.08c.84.5,1.8.41,2.77.33,3.39-.27,11.68,2.22,12.23,13.32h3.4c.17-.18.35-.35.53-.53,7.73-7.43,20.02-7.19,27.45.53h3.4l3.57-22.47c.12-.71-.38-1.39-1.09-1.5ZM10.36,10.85c-.79,0-1.42-.64-1.42-1.42s.63-1.42,1.42-1.42,1.42.63,1.42,1.42-.64,1.42-1.42,1.42Z"/>
    </g>
  </g>
</svg>