<?xml version="1.0" encoding="UTF-8"?>
<svg id="Layer_2" data-name="Layer 2" xmlns="http://www.w3.org/2000/svg" viewBox="0 0 47.13 54.29">
  <defs>
    <style>
      .cls-1 {
        stroke: #000;
        stroke-miterlimit: 10;
        stroke-width: .25px;
      }
    </style>
  </defs>
  <g id="LINE">
    <g id="LWPOLYLINE">
      <path class="cls-1" d="m42.6.12c-1.57,0-2.94,1.08-3.3,2.61l-3.67,15.12c-.62,2.57-1.97,4.9-3.9,6.71l-1.83,1.73c-.32-.35-.87-.37-1.2-.04-.35.32-.37.87-.04,1.2l-1.23,1.16c-.32-.34-.87-.35-1.2-.04-.35.32-.37.87-.04,1.2l-1.23,1.16c-.32-.34-.87-.35-1.2-.03-.34.32-.37.85-.04,1.2l-1.23,1.16c-.32-.34-.87-.37-1.2-.04s-.37.87-.04,1.2l-1.23,1.16c-.32-.34-.87-.35-1.2-.03-.34.31-.37.85-.04,1.19l-1.23,1.18c-.32-.35-.87-.37-1.2-.04s-.37.87-.04,1.2l-1.22,1.15c-.32-.34-.87-.37-1.2-.04-.34.32-.37.87-.04,1.2l-1.23,1.16c-.32-.34-.87-.35-1.2-.03-.34.31-.35.85-.04,1.19l-1.23,1.18c-.32-.35-.87-.37-1.2-.04s-.35.87-.04,1.2l-1.23,1.16c-.32-.34-.87-.35-1.2-.04-.34.32-.35.87-.04,1.2l-1.23,1.16c-.32-.34-.87-.35-1.2-.03s-.35.85-.04,1.2l-1.23,1.16c-.32-.34-.87-.37-1.2-.04-.34.32-.35.87-.04,1.2l-.96.91,14.58-4.69c.34-.11.69-.16,1.04-.16,1.88,0,3.41,1.53,3.41,3.41v1.45h3.4c0-3.76,3.04-6.8,6.8-6.8s6.8,3.04,6.8,6.8h3.4V13.54c0-4.95,2.69-9.51,7.03-11.9l.05-1.51h-4.41Zm-.09,3.15c-.62,0-1.12-.5-1.12-1.12s.5-1.11,1.12-1.11,1.11.5,1.11,1.11-.5,1.12-1.11,1.12Z"/>
    </g>
  </g>
</svg>