<?xml version="1.0" encoding="UTF-8"?>
<svg id="Layer_2" data-name="Layer 2" xmlns="http://www.w3.org/2000/svg" viewBox="0 0 51.25 175.71">
  <defs>
    <style>
      .cls-1 {
        stroke: #000;
        stroke-linecap: round;
        stroke-linejoin: round;
        stroke-width: .25px;
      }
    </style>
  </defs>
  <g id="LINE">
    <g id="LWPOLYLINE">
      <path class="cls-1" d="m51.13,175.58V.12H.12v6.12h10.2c3.76,0,6.8,3.04,6.8,6.8s-3.04,6.8-6.8,6.8H.12v5.1h10.2c3.76,0,6.8,3.04,6.8,6.8s-3.04,6.8-6.8,6.8H.12v5.1h10.2c3.76,0,6.8,3.04,6.8,6.8s-3.04,6.8-6.8,6.8H.12v5.1h10.2c3.76,0,6.8,3.04,6.8,6.8s-3.04,6.8-6.8,6.8H.12v5.1h10.2c3.76,0,6.8,3.04,6.8,6.8s-3.04,6.8-6.8,6.8H.12v5.1h10.2c3.76,0,6.8,3.04,6.8,6.8s-3.04,6.8-6.8,6.8H.12v5.1h10.2c3.76,0,6.8,3.04,6.8,6.8s-3.04,6.8-6.8,6.8H.12v5.1h10.2c3.76,0,6.8,3.04,6.8,6.8s-3.04,6.8-6.8,6.8H.12v5.1h10.2c3.76,0,6.8,3.04,6.8,6.8s-3.04,6.8-6.8,6.8H.12v6.12h51Z"/>
    </g>
  </g>
</svg>