<?xml version="1.0" encoding="UTF-8"?>
<svg id="Layer_2" data-name="Layer 2" xmlns="http://www.w3.org/2000/svg" viewBox="0 0 68.25 68.68">
  <defs>
    <style>
      .cls-1 {
        fill-rule: evenodd;
        stroke-miterlimit: 10;
      }

      .cls-1, .cls-2 {
        stroke: #000;
        stroke-width: .25px;
      }

      .cls-2 {
        fill: none;
        stroke-linecap: round;
        stroke-linejoin: round;
      }
    </style>
  </defs>
  <g id="LINE">
    <g id="SPLINE">
      <path class="cls-2" d="m32.14,21.19c-1.21-4.38-2.43-8.98-3.62-13.69-.6-2.38-2.34-4.13-4.72-4.74C.82-3.16.31,2.2.16,6.14c-.15,4.01.08,6.56,1.88,8.47s5.16,3.19,9.02,2.56c3.86-.63,8.2-3.17,10.57-2.89,2.37.28,2.76,3.38,2.35,7.2-.4,3.82-1.6,8.35-2.89,10.1-1.29,1.75-2.67.72-3.79.49-2.22-.45-3.37,2.34-1.19,3.89,1.09.78,3.02,1.24,2.43,4.96-.58,3.71-3.68,10.67-3.38,17.83.19,4.64,1.8,9.36,7.51,9.81h22.59c9.65-.3,17.96-5.22,22.86-13.55-4.73,3.92-10.74,5.19-16.65,3.52-5.91-1.67-10.37-5.89-12.36-11.7-1.55-5.74-3.11-11.48-4.66-17.22,1.97-1.72,4.52-2.32,7.06-1.66s4.46,2.44,5.34,4.91c.71-2.54,2.77-4.19,5.41-4.31,2.64-.13,4.85,1.32,5.79,3.78.45-1.88,1.61-3.43,3.3-4.37s3.62-1.12,5.45-.51c-3.56-3.35-8.12-5.1-13-5.01,2.43-2.48,5.64-3.79,9.11-3.73-.2-.72-14.47-14.39-30.78,2.48q.59,2.11,0,0Z"/>
    </g>
    <g id="HATCH">
      <path class="cls-1" d="m68.12,55.01c-4.73,3.92-10.74,5.19-16.65,3.52-5.91-1.67-10.37-5.89-12.36-11.7-1.55-5.74-3.11-11.48-4.66-17.22,1.97-1.72,4.52-2.32,7.06-1.66,2.53.66,4.46,2.44,5.34,4.91.71-2.54,2.77-4.19,5.41-4.31s4.85,1.32,5.79,3.78c.45-1.88,1.61-3.43,3.3-4.37s3.62-1.12,5.45-.51c-3.56-3.35-8.12-5.1-13-5.01,2.43-2.48,5.64-3.79,9.11-3.73-.2-.72-14.47-14.39-30.78,2.48q.59,2.11,0,0c-1.21-4.38-2.43-8.98-3.62-13.69-.6-2.38-2.34-4.13-4.72-4.74C.82-3.16.31,2.2.16,6.14c-.15,4.01.08,6.56,1.88,8.47s5.16,3.19,9.02,2.56,8.2-3.17,10.57-2.89c2.37.28,2.76,3.38,2.35,7.2-.4,3.82-1.6,8.35-2.89,10.1-1.29,1.75-2.67.72-3.79.49-2.22-.45-3.37,2.34-1.19,3.89,1.09.78,3.02,1.24,2.43,4.96-.58,3.71-3.68,10.67-3.38,17.83.19,4.64,1.8,9.36,7.51,9.81h22.59c9.65-.3,17.96-5.22,22.86-13.55M19.57,7.7h-2.83l1.42-3.49,1.42,3.49Z"/>
    </g>
    <g id="REGION">
      <g id="LINE-2" data-name="LINE">
        <line class="cls-2" x1="19.57" y1="7.7" x2="16.74" y2="7.7"/>
      </g>
      <g id="LINE-3" data-name="LINE">
        <line class="cls-2" x1="18.16" y1="4.21" x2="19.57" y2="7.7"/>
      </g>
      <g id="LINE-4" data-name="LINE">
        <line class="cls-2" x1="16.74" y1="7.7" x2="18.16" y2="4.21"/>
      </g>
    </g>
  </g>
</svg>