<?xml version="1.0" encoding="UTF-8"?>
<svg id="Layer_2" data-name="Layer 2" xmlns="http://www.w3.org/2000/svg" viewBox="0 0 27.44 77.37">
  <defs>
    <style>
      .cls-1 {
        fill: #c10202;
        stroke-width: 0px;
      }
    </style>
  </defs>
  <g id="LINE">
    <g id="LWPOLYLINE">
      <path class="cls-1" d="m19.02,42.55c-2.46-2.67-4.18-5.91-5.02-9.43-1.69-9.41-2.38-18.97-2.05-28.51h-2.84c-.46,0-.85-.38-.85-.85V.85c0-.48-.38-.85-.85-.85h-.96c-.48,0-.85.38-.85.85v2.69c0,.11-.03.23-.06.33-.19.44-.68.65-1.12.46l-2.24-.91c-.43-.19-.93.03-1.1.46t-.01.01l-.4,1.01c-.16.44.05.94.49,1.1.03.01.05.03.09.04l1.17.31c.09.03.16.06.24.1.4.26.51.79.26,1.18l-2.15,3.37C0,12.04-.19,13.36.19,14.55c.48.91,1.42,1.49,2.44,1.48,1.94-.18,3.75-1.09,5.05-2.54v63.89h4.26v-10c0-3.09,2.52-5.61,5.61-5.61s5.63,2.52,5.63,5.61v10h4.26v-29.67c-3.09-1.22-5.94-2.97-8.42-5.16ZM5.93,9.13c-.61,0-1.1-.5-1.1-1.12s.49-1.12,1.1-1.12,1.12.5,1.12,1.12-.5,1.12-1.12,1.12Z"/>
    </g>
  </g>
</svg>