<?xml version="1.0" encoding="UTF-8"?>
<svg id="Layer_2" data-name="Layer 2" xmlns="http://www.w3.org/2000/svg" viewBox="0 0 76.57 37.24">
  <defs>
    <style>
      .cls-1 {
        fill: #c10202;
        stroke-width: 0px;
      }
    </style>
  </defs>
  <g id="LINE">
    <g id="LWPOLYLINE">
      <path class="cls-1" d="m66.74,8.98c-11.8,2.81-24.24.48-34.22-6.39-2.03-1.1-4.17-1.95-6.38-2.58-.42,1.92.8,3.83,2.72,4.25.44.11.89.11,1.32.05-3.3,4.91-7.54,9.11-12.46,12.4-3.05-.93-5.57-3.06-7.03-5.88,0,3.02.96,5.96,2.73,8.41-.09.06-.18.11-.27.15C7.54,15.61,3,10.46,0,4.41c0,11.23,5.28,21.8,14.25,28.55,6.66-.75,13.19-2.36,19.44-4.77,3.56,1.88,6.18,5.16,7.24,9.05h8.9c0-2.78,2.25-5.03,5.01-5.03s5.03,2.25,5.03,5.03h9.08c2.49-5.54,3.89-11.5,4.13-17.56,1.23.59,2.4,1.29,3.5,2.09-1.88-5.18-5.31-9.65-9.83-12.79Zm-45.54,11.63c-.93,0-1.7-.77-1.7-1.7h3.38c0,.93-.75,1.7-1.68,1.7Z"/>
    </g>
  </g>
</svg>