<?xml version="1.0" encoding="UTF-8"?>
<svg id="Layer_2" data-name="Layer 2" xmlns="http://www.w3.org/2000/svg" viewBox="0 0 22.16 62.01">
  <defs>
    <style>
      .cls-1 {
        fill: none;
        stroke-miterlimit: 10;
      }

      .cls-1, .cls-2 {
        stroke: #000;
        stroke-width: .25px;
      }

      .cls-2 {
        stroke-linecap: round;
        stroke-linejoin: round;
      }
    </style>
  </defs>
  <g id="LINE">
    <g id="HATCH">
      <path class="cls-1" d="m2.43,6.23l-1.72,2.69m5.55,1.97v51h3.4v-7.98m8.97,0v7.98h3.4v-23.68"/>
    </g>
    <g id="LWPOLYLINE">
      <path class="cls-2" d="m15.31,34.09c-1.96-2.13-3.34-4.72-4.01-7.53-1.35-7.51-1.9-15.14-1.64-22.76h-2.27c-.37,0-.68-.3-.68-.68V.8c0-.38-.3-.68-.68-.68h-.77c-.38,0-.68.3-.68.68v2.15c0,.09-.02.18-.05.26-.15.35-.54.52-.89.37l-1.79-.73c-.34-.15-.74.02-.88.37t-.01.01l-.32.81c-.13.35.04.75.39.88.02,0,.04.02.07.03l.93.25c.07.02.13.05.19.08.32.21.41.63.21.94l-1.72,2.69c-.58.82-.74,1.87-.43,2.82.38.73,1.13,1.19,1.95,1.18,1.55-.14,2.99-.87,4.03-2.03v51h3.4v-7.98c0-2.47,2.01-4.48,4.48-4.48s4.49,2.01,4.49,4.48v7.98h3.4v-23.68c-2.47-.97-4.74-2.37-6.72-4.12ZM4.86,7.42c-.49,0-.88-.4-.88-.89s.39-.89.88-.89.89.4.89.89-.4.89-.89.89Z"/>
    </g>
  </g>
</svg>