<?xml version="1.0" encoding="UTF-8"?>
<svg id="Layer_2" data-name="Layer 2" xmlns="http://www.w3.org/2000/svg" viewBox="0 0 159.73 51.25">
  <defs>
    <style>
      .cls-1 {
        stroke: #000;
        stroke-linecap: round;
        stroke-linejoin: round;
        stroke-width: .25px;
      }
    </style>
  </defs>
  <g id="LINE">
    <g id="LWPOLYLINE">
      <path class="cls-1" d="m.13,23.93h10.95v12.15c0,2.84,2.3,5.13,5.13,5.13s5.13-2.3,5.13-5.13v-15.55h10.95v15.55c0,2.84,2.3,5.13,5.13,5.13s5.13-2.3,5.13-5.13v-18.95h10.95v18.95c0,2.84,2.3,5.13,5.13,5.13s5.13-2.3,5.13-5.13V13.73h10.95v22.35c0,2.84,2.3,5.13,5.13,5.13s5.13-2.3,5.13-5.13V10.33h10.95v25.75c0,2.84,2.3,5.13,5.13,5.13s5.13-2.3,5.13-5.13V6.93h10.95v29.15c0,2.84,2.3,5.13,5.13,5.13s5.13-2.3,5.13-5.13V3.53h10.95v32.55c0,2.84,2.3,5.13,5.13,5.13s5.13-2.3,5.13-5.13V.12h10.95v51H.12v-27.2Z"/>
    </g>
  </g>
</svg>